<svg width="294" height="335" viewBox="0 0 294 335" fill="none" xmlns="http://www.w3.org/2000/svg">
<path d="M19.9922 283.144V281.944L20.9522 281.848C22.0722 281.72 22.9202 281.56 23.4962 281.368C24.1042 281.144 24.5202 280.696 24.7442 280.024C24.9682 279.32 25.0802 278.184 25.0802 276.616V255.304C25.0802 253.704 24.9682 252.568 24.7442 251.896C24.5202 251.224 24.1042 250.792 23.4962 250.6C22.9202 250.376 22.0722 250.2 20.9522 250.072L19.9922 249.976V248.776L27.0962 248.92H29.7842L41.2082 276.616L53.8322 248.92H56.7122L63.4322 248.776V249.976L62.4722 250.072C61.3842 250.2 60.5362 250.376 59.9282 250.6C59.3202 250.792 58.9042 251.224 58.6802 251.896C58.4562 252.568 58.3442 253.704 58.3442 255.304V276.616C58.3442 278.184 58.4562 279.32 58.6802 280.024C58.9042 280.728 59.3202 281.176 59.9282 281.368C60.5362 281.56 61.3842 281.72 62.4722 281.848L63.4322 281.944V283.144L56.3282 283L49.1762 283.144V281.944L50.1362 281.848C51.2562 281.72 52.1042 281.56 52.6802 281.368C53.2882 281.176 53.7042 280.728 53.9282 280.024C54.1522 279.32 54.2642 278.184 54.2642 276.616V251.944L40.0562 283H39.1442L26.7602 252.424V277.96C26.7602 278.984 26.8882 279.752 27.1442 280.264C27.4002 280.776 27.8162 281.144 28.3922 281.368C29.0002 281.56 29.8322 281.72 30.8882 281.848L31.8482 281.944V283.144L25.7522 283L19.9922 283.144ZM67.7747 283.144V281.944L68.7347 281.848C69.8547 281.72 70.7027 281.56 71.2787 281.368C71.8867 281.144 72.3027 280.696 72.5267 280.024C72.7507 279.32 72.8627 278.184 72.8627 276.616V255.304C72.8627 253.704 72.7507 252.568 72.5267 251.896C72.3027 251.224 71.8867 250.792 71.2787 250.6C70.7027 250.376 69.8547 250.2 68.7347 250.072L67.7747 249.976V248.776L74.8787 248.92H74.9267L82.0307 248.776V249.976L81.0707 250.072C79.9827 250.2 79.1347 250.376 78.5267 250.6C77.9187 250.792 77.5027 251.224 77.2787 251.896C77.0547 252.568 76.9427 253.704 76.9427 255.304V276.616C76.9427 278.184 77.0547 279.32 77.2787 280.024C77.5027 280.696 77.9187 281.144 78.5267 281.368C79.1347 281.56 79.9827 281.72 81.0707 281.848L82.0307 281.944V283.144L74.9267 283H74.8787L67.7747 283.144ZM86.3484 283.144V281.944L87.3084 281.848C88.4284 281.72 89.2764 281.56 89.8524 281.368C90.4604 281.144 90.8764 280.696 91.1004 280.024C91.3244 279.32 91.4364 278.184 91.4364 276.616V255.304C91.4364 253.704 91.3244 252.568 91.1004 251.896C90.8764 251.224 90.4604 250.792 89.8524 250.6C89.2764 250.376 88.4284 250.2 87.3084 250.072L86.3484 249.976V248.776L93.5484 248.92L99.7404 248.776V249.88L98.9724 249.976C98.0444 250.072 97.3244 250.216 96.8124 250.408C96.3324 250.6 95.9964 251.016 95.8044 251.656C95.6124 252.264 95.5164 253.288 95.5164 254.728V274.744C95.5164 276.312 95.5964 277.608 95.7564 278.632C95.9484 279.656 96.4444 280.408 97.2444 280.888C98.0444 281.368 99.3404 281.608 101.132 281.608H104.732C107.516 281.608 109.516 280.872 110.732 279.4C111.98 277.896 112.716 275.736 112.94 272.92H113.996L113.516 283.144L93.4524 283L86.3484 283.144ZM118.094 283.144V281.944L119.054 281.848C120.174 281.72 121.022 281.56 121.598 281.368C122.206 281.144 122.622 280.696 122.846 280.024C123.07 279.32 123.182 278.184 123.182 276.616V255.304C123.182 253.704 123.07 252.568 122.846 251.896C122.622 251.224 122.206 250.792 121.598 250.6C121.022 250.376 120.174 250.2 119.054 250.072L118.094 249.976V248.776L125.294 248.92L131.486 248.776V249.88L130.718 249.976C129.79 250.072 129.07 250.216 128.558 250.408C128.078 250.6 127.742 251.016 127.55 251.656C127.358 252.264 127.262 253.288 127.262 254.728V274.744C127.262 276.312 127.342 277.608 127.502 278.632C127.694 279.656 128.19 280.408 128.99 280.888C129.79 281.368 131.086 281.608 132.878 281.608H136.478C139.262 281.608 141.262 280.872 142.478 279.4C143.726 277.896 144.462 275.736 144.686 272.92H145.742L145.262 283.144L125.198 283L118.094 283.144ZM149.84 283.144V281.944L150.8 281.848C151.92 281.72 152.768 281.56 153.344 281.368C153.952 281.144 154.368 280.696 154.592 280.024C154.816 279.32 154.928 278.184 154.928 276.616V255.304C154.928 253.704 154.816 252.568 154.592 251.896C154.368 251.224 153.952 250.792 153.344 250.6C152.768 250.376 151.92 250.2 150.8 250.072L149.84 249.976V248.776L156.944 248.92H156.992L164.096 248.776V249.976L163.136 250.072C162.048 250.2 161.2 250.376 160.592 250.6C159.984 250.792 159.568 251.224 159.344 251.896C159.12 252.568 159.008 253.704 159.008 255.304V276.616C159.008 278.184 159.12 279.32 159.344 280.024C159.568 280.696 159.984 281.144 160.592 281.368C161.2 281.56 162.048 281.72 163.136 281.848L164.096 281.944V283.144L156.992 283H156.944L149.84 283.144ZM186.125 283.528C183.725 283.528 181.501 283.096 179.453 282.232C177.437 281.368 175.677 280.152 174.173 278.584C172.701 277.016 171.549 275.16 170.717 273.016C169.885 270.84 169.469 268.456 169.469 265.864C169.469 263.272 169.885 260.904 170.717 258.76C171.549 256.616 172.701 254.76 174.173 253.192C175.677 251.624 177.437 250.408 179.453 249.544C181.501 248.68 183.725 248.248 186.125 248.248C188.525 248.248 190.733 248.68 192.749 249.544C194.797 250.408 196.557 251.624 198.029 253.192C199.533 254.76 200.701 256.616 201.533 258.76C202.365 260.904 202.781 263.272 202.781 265.864C202.781 268.456 202.365 270.84 201.533 273.016C200.701 275.16 199.533 277.016 198.029 278.584C196.557 280.152 194.797 281.368 192.749 282.232C190.733 283.096 188.525 283.528 186.125 283.528ZM186.125 282.088C188.909 282.088 191.165 281.432 192.893 280.12C194.621 278.808 195.885 276.952 196.685 274.552C197.485 272.12 197.885 269.224 197.885 265.864C197.885 262.504 197.485 259.624 196.685 257.224C195.885 254.792 194.621 252.936 192.893 251.656C191.165 250.344 188.909 249.688 186.125 249.688C183.373 249.688 181.117 250.344 179.357 251.656C177.629 252.936 176.365 254.792 175.565 257.224C174.765 259.624 174.365 262.504 174.365 265.864C174.365 269.224 174.765 272.12 175.565 274.552C176.365 276.952 177.629 278.808 179.357 280.12C181.117 281.432 183.373 282.088 186.125 282.088ZM206.205 283.192V281.992L207.165 281.896C208.285 281.768 209.133 281.608 209.709 281.416C210.317 281.224 210.733 280.776 210.957 280.072C211.181 279.368 211.293 278.216 211.293 276.616V251.848C211.005 251.496 210.573 251.112 209.997 250.696C209.421 250.248 208.573 250.024 207.453 250.024H206.013V248.776L215.325 248.92C215.901 249.72 216.669 250.776 217.629 252.088C218.621 253.4 219.709 254.856 220.893 256.456C222.109 258.056 223.357 259.704 224.637 261.4C225.917 263.064 227.149 264.68 228.333 266.248C229.549 267.816 230.637 269.224 231.597 270.472C232.557 271.72 233.309 272.712 233.853 273.448V255.304C233.853 253.704 233.741 252.568 233.517 251.896C233.293 251.192 232.877 250.744 232.269 250.552C231.693 250.328 230.845 250.168 229.725 250.072L228.765 249.976V248.776L235.005 248.92L240.861 248.776V249.976L239.901 250.072C238.813 250.2 237.965 250.376 237.357 250.6C236.749 250.792 236.333 251.224 236.109 251.896C235.885 252.568 235.773 253.704 235.773 255.304V283H234.333C233.821 281.944 233.053 280.648 232.029 279.112C231.037 277.544 229.885 275.832 228.573 273.976C227.261 272.12 225.885 270.232 224.445 268.312C223.037 266.36 221.629 264.472 220.221 262.648C218.813 260.824 217.501 259.16 216.285 257.656C215.069 256.152 214.045 254.904 213.213 253.912V276.616C213.213 278.216 213.325 279.368 213.549 280.072C213.773 280.776 214.189 281.224 214.797 281.416C215.405 281.608 216.253 281.768 217.341 281.896L218.301 281.992V283.192L212.157 283L206.205 283.192Z" fill="#A58C63"/>
<path d="M271.449 283.528C269.689 283.528 268.377 282.936 267.513 281.752C266.681 280.536 266.137 279.048 265.881 277.288C265.721 276.008 265.465 274.728 265.113 273.448C264.793 272.168 264.265 271 263.529 269.944C262.825 268.856 261.817 267.992 260.505 267.352C259.225 266.712 257.545 266.392 255.465 266.392H253.401V276.616C253.401 278.184 253.513 279.32 253.737 280.024C253.961 280.696 254.377 281.144 254.985 281.368C255.593 281.56 256.441 281.72 257.529 281.848L258.489 281.944V283.144L251.385 283H251.337L244.233 283.144V281.944L245.193 281.848C246.313 281.72 247.161 281.56 247.737 281.368C248.345 281.144 248.761 280.696 248.985 280.024C249.209 279.32 249.321 278.184 249.321 276.616V255.304C249.321 253.704 249.209 252.568 248.985 251.896C248.761 251.224 248.345 250.792 247.737 250.6C247.161 250.376 246.313 250.2 245.193 250.072L244.233 249.976V248.776L251.337 248.92H258.057C260.233 248.92 262.249 249.176 264.105 249.688C265.961 250.168 267.449 251.016 268.569 252.232C269.721 253.448 270.297 255.144 270.297 257.32C270.297 259.24 269.865 260.808 269.001 262.024C268.169 263.208 267.049 264.12 265.641 264.76C264.265 265.368 262.761 265.8 261.129 266.056C263.497 266.216 265.417 267.032 266.889 268.504C268.393 269.944 269.353 272.072 269.769 274.888C270.057 276.68 270.409 278.088 270.825 279.112C271.273 280.104 271.753 280.808 272.265 281.224C272.809 281.608 273.353 281.8 273.897 281.8C274.249 281.8 274.585 281.736 274.905 281.608C275.257 281.48 275.561 281.352 275.817 281.224L276.153 282.424C275.641 282.68 274.953 282.92 274.089 283.144C273.225 283.4 272.345 283.528 271.449 283.528ZM258.153 250.168H253.401V265.096H257.433C260.505 265.096 262.649 264.472 263.865 263.224C265.113 261.976 265.737 260.104 265.737 257.608C265.737 255.24 265.177 253.416 264.057 252.136C262.937 250.824 260.969 250.168 258.153 250.168Z" fill="black"/>
<path d="M186.714 319.33C184.674 319.33 182.914 318.86 181.434 317.92C179.974 316.98 178.844 315.69 178.044 314.05C177.264 312.39 176.874 310.49 176.874 308.35C176.874 306.75 177.134 305.28 177.654 303.94C178.174 302.6 178.894 301.43 179.814 300.43C180.734 299.43 181.794 298.66 182.994 298.12C184.214 297.56 185.514 297.28 186.894 297.28C188.114 297.28 189.114 297.42 189.894 297.7C190.694 297.96 191.294 298.19 191.694 298.39C191.954 298.51 192.194 298.62 192.414 298.72C192.634 298.8 192.784 298.84 192.864 298.84C193.084 298.84 193.264 298.76 193.404 298.6C193.544 298.42 193.634 298.12 193.674 297.7H194.424L194.364 301.21L194.424 304.72H193.674C193.374 302.64 192.654 301.03 191.514 299.89C190.374 298.75 188.864 298.18 186.984 298.18C185.664 298.18 184.554 298.45 183.654 298.99C182.754 299.51 182.034 300.24 181.494 301.18C180.954 302.1 180.554 303.18 180.294 304.42C180.054 305.64 179.934 306.95 179.934 308.35C179.934 310.45 180.154 312.25 180.594 313.75C181.054 315.25 181.794 316.41 182.814 317.23C183.854 318.03 185.244 318.43 186.984 318.43C188.284 318.43 189.414 318.13 190.374 317.53C191.334 316.93 192.104 316.13 192.684 315.13C193.284 314.13 193.644 313.03 193.764 311.83H194.484L194.424 315.49L194.514 319H193.794L193.704 318.67C193.624 318.41 193.524 318.17 193.404 317.95C193.304 317.71 193.124 317.59 192.864 317.59C192.724 317.59 192.554 317.63 192.354 317.71C192.174 317.79 191.964 317.89 191.724 318.01C191.204 318.27 190.524 318.56 189.684 318.88C188.844 319.18 187.854 319.33 186.714 319.33ZM199.006 319.09V318.34L199.606 318.28C200.306 318.2 200.836 318.1 201.196 317.98C201.576 317.84 201.836 317.56 201.976 317.14C202.116 316.7 202.186 315.99 202.186 315.01V301.69C202.186 300.69 202.116 299.98 201.976 299.56C201.836 299.14 201.576 298.87 201.196 298.75C200.836 298.61 200.306 298.5 199.606 298.42L199.006 298.36V297.61L203.506 297.7L207.376 297.61V298.3L206.896 298.36C206.316 298.42 205.866 298.51 205.546 298.63C205.246 298.75 205.036 299.01 204.916 299.41C204.796 299.79 204.736 300.43 204.736 301.33V313.84C204.736 314.82 204.786 315.63 204.886 316.27C205.006 316.91 205.316 317.38 205.816 317.68C206.316 317.98 207.126 318.13 208.246 318.13H210.496C212.236 318.13 213.486 317.67 214.246 316.75C215.026 315.81 215.486 314.46 215.626 312.7H216.286L215.986 319.09L203.446 319L199.006 319.09ZM229.019 319.33C226.519 319.33 224.579 318.78 223.199 317.68C221.819 316.58 221.129 314.79 221.129 312.31V301.69C221.129 300.69 221.059 299.98 220.919 299.56C220.779 299.14 220.519 298.87 220.139 298.75C219.779 298.61 219.249 298.5 218.549 298.42L217.949 298.36V297.61L222.389 297.7H222.419L226.859 297.61V298.36L226.259 298.42C225.579 298.5 225.049 298.61 224.669 298.75C224.289 298.87 224.029 299.14 223.889 299.56C223.749 299.98 223.679 300.69 223.679 301.69V312.31C223.679 314.33 224.229 315.84 225.329 316.84C226.429 317.84 227.849 318.34 229.589 318.34C231.609 318.34 233.069 317.79 233.969 316.69C234.869 315.57 235.319 314.05 235.319 312.13V301.69C235.319 300.69 235.249 299.98 235.109 299.56C234.969 299.14 234.709 298.87 234.329 298.75C233.969 298.61 233.439 298.5 232.739 298.42L232.139 298.36V297.61L236.579 297.67L239.549 297.61V298.36L238.949 298.42C238.269 298.5 237.739 298.61 237.359 298.75C236.979 298.87 236.719 299.14 236.579 299.56C236.439 299.98 236.369 300.69 236.369 301.69V312.13C236.369 314.45 235.759 316.23 234.539 317.47C233.319 318.71 231.479 319.33 229.019 319.33ZM242.099 319.09V318.34L242.699 318.28C243.399 318.2 243.929 318.1 244.289 317.98C244.669 317.84 244.929 317.56 245.069 317.14C245.209 316.7 245.279 315.99 245.279 315.01V301.69C245.279 300.69 245.209 299.98 245.069 299.56C244.929 299.14 244.669 298.87 244.289 298.75C243.929 298.61 243.399 298.5 242.699 298.42L242.099 298.36V297.61L246.539 297.7H250.199C250.739 297.7 251.369 297.72 252.089 297.76C252.809 297.8 253.529 297.9 254.249 298.06C254.989 298.2 255.669 298.45 256.289 298.81C256.929 299.15 257.439 299.63 257.819 300.25C258.219 300.85 258.419 301.63 258.419 302.59C258.419 303.51 258.199 304.3 257.759 304.96C257.339 305.62 256.799 306.17 256.139 306.61C255.499 307.03 254.829 307.36 254.129 307.6C255.089 307.68 255.989 307.9 256.829 308.26C257.669 308.62 258.349 309.18 258.869 309.94C259.409 310.68 259.679 311.68 259.679 312.94C259.679 314.1 259.449 315.08 258.989 315.88C258.549 316.66 257.949 317.28 257.189 317.74C256.429 318.18 255.589 318.5 254.669 318.7C253.749 318.9 252.819 319 251.879 319H246.539L242.099 319.09ZM251.099 298.54H247.709V307.39H251.699C252.939 307.39 253.899 306.99 254.579 306.19C255.279 305.39 255.629 304.19 255.629 302.59C255.629 301.45 255.449 300.59 255.089 300.01C254.729 299.43 254.209 299.04 253.529 298.84C252.869 298.64 252.059 298.54 251.099 298.54ZM250.199 318.16H251.879C252.879 318.16 253.749 318.02 254.489 317.74C255.249 317.46 255.829 316.95 256.229 316.21C256.649 315.45 256.859 314.37 256.859 312.97C256.859 311.61 256.629 310.59 256.169 309.91C255.709 309.23 255.009 308.78 254.069 308.56C253.129 308.34 251.939 308.23 250.499 308.23H247.709V315.13C247.709 316.33 247.909 317.14 248.309 317.56C248.729 317.96 249.359 318.16 250.199 318.16Z" fill="#967C4E"/>
<path d="M29.2 320.09V319.34L29.8 319.28C30.5 319.2 31.03 319.1 31.39 318.98C31.77 318.84 32.03 318.56 32.17 318.14C32.31 317.7 32.38 316.99 32.38 316.01V302.69C32.38 301.69 32.31 300.98 32.17 300.56C32.03 300.14 31.77 299.87 31.39 299.75C31.03 299.61 30.5 299.5 29.8 299.42L29.2 299.36V298.61L33.64 298.7H37.72C38.92 298.7 40.04 298.78 41.08 298.94C42.12 299.08 43.03 299.36 43.81 299.78C44.59 300.18 45.2 300.77 45.64 301.55C46.08 302.33 46.3 303.34 46.3 304.58C46.3 306.36 45.63 307.8 44.29 308.9C42.95 310 41 310.55 38.44 310.55H34.93V316.01C34.93 316.99 35.01 317.7 35.17 318.14C35.35 318.56 35.66 318.84 36.1 318.98C36.54 319.1 37.16 319.2 37.96 319.28L38.62 319.34V320.09L33.55 320L29.2 320.09ZM38.89 299.54H34.93V309.65H38.44C39.82 309.65 40.87 309.45 41.59 309.05C42.31 308.65 42.8 308.07 43.06 307.31C43.32 306.55 43.45 305.64 43.45 304.58C43.45 303.44 43.3 302.54 43 301.88C42.72 301.2 42.34 300.69 41.86 300.35C41.4 300.01 40.9 299.79 40.36 299.69C39.84 299.59 39.35 299.54 38.89 299.54ZM66.453 320.33C65.353 320.33 64.533 319.96 63.993 319.22C63.473 318.46 63.133 317.53 62.973 316.43C62.873 315.63 62.713 314.83 62.493 314.03C62.293 313.23 61.963 312.5 61.503 311.84C61.063 311.16 60.433 310.62 59.613 310.22C58.813 309.82 57.763 309.62 56.463 309.62H55.173V316.01C55.173 316.99 55.243 317.7 55.383 318.14C55.523 318.56 55.783 318.84 56.163 318.98C56.543 319.1 57.073 319.2 57.753 319.28L58.353 319.34V320.09L53.913 320H53.883L49.443 320.09V319.34L50.043 319.28C50.743 319.2 51.273 319.1 51.633 318.98C52.013 318.84 52.273 318.56 52.413 318.14C52.553 317.7 52.623 316.99 52.623 316.01V302.69C52.623 301.69 52.553 300.98 52.413 300.56C52.273 300.14 52.013 299.87 51.633 299.75C51.273 299.61 50.743 299.5 50.043 299.42L49.443 299.36V298.61L53.883 298.7H58.083C59.443 298.7 60.703 298.86 61.863 299.18C63.023 299.48 63.953 300.01 64.653 300.77C65.373 301.53 65.733 302.59 65.733 303.95C65.733 305.15 65.463 306.13 64.923 306.89C64.403 307.63 63.703 308.2 62.823 308.6C61.963 308.98 61.023 309.25 60.003 309.41C61.483 309.51 62.683 310.02 63.603 310.94C64.543 311.84 65.143 313.17 65.403 314.93C65.583 316.05 65.803 316.93 66.063 317.57C66.343 318.19 66.643 318.63 66.963 318.89C67.303 319.13 67.643 319.25 67.983 319.25C68.203 319.25 68.413 319.21 68.613 319.13C68.833 319.05 69.023 318.97 69.183 318.89L69.393 319.64C69.073 319.8 68.643 319.95 68.103 320.09C67.563 320.25 67.013 320.33 66.453 320.33ZM58.143 299.48H55.173V308.81H57.693C59.613 308.81 60.953 308.42 61.713 307.64C62.493 306.86 62.883 305.69 62.883 304.13C62.883 302.65 62.533 301.51 61.833 300.71C61.133 299.89 59.903 299.48 58.143 299.48ZM71.5023 320.09V319.34L72.1023 319.28C72.8023 319.2 73.3323 319.1 73.6923 318.98C74.0723 318.84 74.3323 318.56 74.4723 318.14C74.6123 317.7 74.6823 316.99 74.6823 316.01V302.69C74.6823 301.69 74.6123 300.98 74.4723 300.56C74.3323 300.14 74.0723 299.87 73.6923 299.75C73.3323 299.61 72.8023 299.5 72.1023 299.42L71.5023 299.36V298.61L75.9423 298.7H75.9723L80.4123 298.61V299.36L79.8123 299.42C79.1323 299.5 78.6023 299.61 78.2223 299.75C77.8423 299.87 77.5823 300.14 77.4423 300.56C77.3023 300.98 77.2323 301.69 77.2323 302.69V316.01C77.2323 316.99 77.3023 317.7 77.4423 318.14C77.5823 318.56 77.8423 318.84 78.2223 318.98C78.6023 319.1 79.1323 319.2 79.8123 319.28L80.4123 319.34V320.09L75.9723 320H75.9423L71.5023 320.09ZM93.4909 320.3L85.6309 301.79C85.3709 301.17 85.0409 300.67 84.6409 300.29C84.2609 299.89 83.7009 299.62 82.9609 299.48L82.3609 299.36V298.61L86.8309 298.7L91.3009 298.61V299.36L90.4009 299.45C89.7809 299.51 89.2809 299.67 88.9009 299.93C88.5409 300.17 88.3609 300.54 88.3609 301.04C88.3609 301.4 88.4709 301.85 88.6909 302.39L94.7509 316.76L100.571 302.36C100.691 302.08 100.771 301.83 100.811 301.61C100.871 301.37 100.901 301.16 100.901 300.98C100.901 300.5 100.741 300.15 100.421 299.93C100.101 299.69 99.6609 299.54 99.1009 299.48L98.0509 299.36V298.61L102.251 298.7L105.251 298.61V299.33L104.561 299.48C103.801 299.64 103.211 299.95 102.791 300.41C102.371 300.87 101.991 301.53 101.651 302.39L94.4509 320.3H93.4909ZM101.813 320.09V319.34L102.083 319.31C102.783 319.21 103.353 319.07 103.793 318.89C104.253 318.71 104.643 318.42 104.963 318.02C105.303 317.6 105.623 317.03 105.923 316.31L113.183 298.7H114.203L121.283 316.31C121.683 317.29 122.113 318.01 122.573 318.47C123.033 318.93 123.663 319.2 124.463 319.28L125.063 319.34V320.09L121.343 320L116.543 320.09V319.34L117.143 319.28C117.843 319.2 118.343 319.05 118.643 318.83C118.943 318.61 119.093 318.3 119.093 317.9C119.093 317.5 118.953 316.96 118.673 316.28L117.113 312.38H108.653L107.033 316.28C106.893 316.64 106.773 316.97 106.673 317.27C106.573 317.55 106.523 317.8 106.523 318.02C106.523 318.4 106.683 318.69 107.003 318.89C107.343 319.09 107.893 319.22 108.653 319.28L109.253 319.34V320.09L105.443 320L101.813 320.09ZM109.043 311.42H116.753L112.973 301.91L109.043 311.42ZM130.356 320.09V319.34L131.016 319.28C131.836 319.2 132.456 319.1 132.876 318.98C133.316 318.84 133.616 318.56 133.776 318.14C133.956 317.7 134.046 316.99 134.046 316.01V299.51H129.816C128.896 299.51 128.166 299.69 127.626 300.05C127.106 300.39 126.646 300.95 126.246 301.73C125.866 302.51 125.416 303.55 124.896 304.85L124.266 304.7L125.016 301.01L125.346 298.61L133.896 298.7H136.746L145.326 298.61L145.656 301.01L146.406 304.7L145.746 304.88C145.286 303.72 144.856 302.74 144.456 301.94C144.076 301.14 143.626 300.54 143.106 300.14C142.586 299.72 141.896 299.51 141.036 299.51H136.596V316.01C136.596 316.99 136.676 317.7 136.836 318.14C137.016 318.56 137.326 318.84 137.766 318.98C138.206 319.1 138.826 319.2 139.626 319.28L140.286 319.34V320.09L135.396 320L130.356 320.09ZM148.9 320.09V319.34L149.5 319.28C150.2 319.2 150.73 319.1 151.09 318.98C151.47 318.84 151.73 318.56 151.87 318.14C152.01 317.7 152.08 316.99 152.08 316.01V302.69C152.08 301.69 152.01 300.98 151.87 300.56C151.73 300.14 151.47 299.87 151.09 299.75C150.73 299.61 150.2 299.5 149.5 299.42L148.9 299.36V298.61L153.34 298.7H164.98L165.04 300.86L165.28 303.62H164.56C164.42 302.72 164.23 302 163.99 301.46C163.77 300.92 163.45 300.52 163.03 300.26C162.61 299.98 162.04 299.8 161.32 299.72C160.62 299.62 159.71 299.57 158.59 299.57H154.63V308.36H157.99C158.39 308.36 158.74 308.27 159.04 308.09C159.34 307.89 159.58 307.53 159.76 307.01C159.96 306.49 160.08 305.74 160.12 304.76H160.87L160.78 308.78L160.87 313.22H160.12C160.12 311.76 159.94 310.73 159.58 310.13C159.22 309.51 158.69 309.2 157.99 309.2H154.63V316.79C154.63 317.75 154.84 318.39 155.26 318.71C155.68 319.01 156.46 319.16 157.6 319.16H160.39C161.55 319.16 162.45 319.03 163.09 318.77C163.75 318.51 164.24 317.99 164.56 317.21C164.88 316.41 165.1 315.24 165.22 313.7H165.97L165.76 317.3L165.67 320H153.34L148.9 320.09Z" fill="black"/>
<path fill-rule="evenodd" clip-rule="evenodd" d="M221.983 105.049L156.392 0L90.8016 105.049H90.2432L90.5224 105.496L90.2432 105.943H90.8016L156.392 210.992L221.983 105.943H222.541L222.262 105.496L222.541 105.049H221.983Z" fill="black" fill-opacity="0.5"/>
<path fill-rule="evenodd" clip-rule="evenodd" d="M256.475 131.097L233.696 11.64L133.205 89.6103L132.68 89.4339L132.777 89.9417L132.349 90.2739L132.874 90.4506L155.654 209.908L256.145 131.938L256.669 132.114L256.572 131.606L257 131.274L256.475 131.097Z" fill="black" fill-opacity="0.45"/>
<path fill-rule="evenodd" clip-rule="evenodd" d="M178.795 91.3984L78.304 13.428L55.5245 132.886L55 133.062L55.4276 133.394L55.3307 133.902L55.8551 133.726L156.346 211.696L179.126 92.2384L179.65 92.0619L179.223 91.7301L179.32 91.2219L178.795 91.3984Z" fill="black" fill-opacity="0.45"/>
</svg>
