<svg width="31" height="44" viewBox="0 0 31 44" fill="none" xmlns="http://www.w3.org/2000/svg">
<path d="M0.307434 28.0679C0.307434 32.0001 1.54472 35.4577 4.0193 38.4408C6.49387 41.4238 9.66337 43.1526 13.5278 43.6272C18.1379 44.1696 22.1379 42.9492 25.5278 39.9662C28.9176 36.9831 30.6125 33.2204 30.6125 28.6781V22.1696C30.6125 21.2882 30.2396 20.3391 29.4939 19.3221C28.7481 18.3052 27.6973 17.7967 26.3413 17.7967V28.6781C26.3413 31.8645 25.1549 34.5425 22.782 36.712C20.4091 38.8814 17.5956 39.8306 14.3413 39.5594C11.5617 39.0848 9.23964 37.7459 7.37523 35.5425C5.51082 33.3391 4.57862 30.8475 4.57862 28.0679V15.4577C3.42608 15.4577 2.42608 15.8814 1.57862 16.7289C0.731163 17.5764 0.307434 18.6103 0.307434 19.8306V28.0679ZM19.8329 13.3221V21.9662H24.104V13.3221C24.104 11.8306 23.3922 11.0848 21.9685 11.0848C20.5447 11.0848 19.8329 11.8306 19.8329 13.3221ZM13.3244 2.44077V21.9662H17.5956V2.44077C17.5956 1.01704 16.8837 0.305176 15.46 0.305176C14.0362 0.305176 13.3244 1.01704 13.3244 2.44077ZM6.81591 13.3221V21.9662H11.0871V13.3221C11.0871 11.8306 10.3752 11.0848 8.9515 11.0848C7.52777 11.0848 6.81591 11.8306 6.81591 13.3221Z" fill="#E4A951"/>
</svg>
