<svg width="522" height="131" viewBox="0 0 522 131" fill="none" xmlns="http://www.w3.org/2000/svg">
<path fill-rule="evenodd" clip-rule="evenodd" d="M103.333 65.0055L62.7442 0L22.1559 65.0055H21.8103L21.9831 65.2822L21.8104 65.5589H22.1558L62.7442 130.564L103.333 65.5589H103.678L103.505 65.2821L103.678 65.0055H103.333Z" fill="black" fill-opacity="0.5"/>
<path fill-rule="evenodd" clip-rule="evenodd" d="M124.676 81.1246L110.58 7.20297L48.3952 55.4519L48.0709 55.3428L48.1308 55.657L47.866 55.8625L48.1909 55.9719L62.2871 129.894L124.472 81.6446L124.796 81.7538L124.737 81.4395L125.001 81.234L124.676 81.1246Z" fill="black" fill-opacity="0.45"/>
<path fill-rule="evenodd" clip-rule="evenodd" d="M76.6073 56.5584L14.4222 8.30942L0.325959 82.2312L0.00137329 82.3404L0.265978 82.5457L0.206007 82.8602L0.530539 82.751L62.7157 131L76.8119 57.0782L77.1365 56.969L76.8719 56.7637L76.9319 56.4492L76.6073 56.5584Z" fill="black" fill-opacity="0.45"/>
<path d="M164.24 92.192V90.592L165.52 90.464C167.013 90.2933 168.144 90.08 168.912 89.824C169.723 89.5253 170.277 88.928 170.576 88.032C170.875 87.0933 171.024 85.5787 171.024 83.488V55.072C171.024 52.9387 170.875 51.424 170.576 50.528C170.277 49.632 169.723 49.056 168.912 48.8C168.144 48.5013 167.013 48.2667 165.52 48.096L164.24 47.968V46.368L173.712 46.56H177.296L192.528 83.488L209.36 46.56H213.2L222.16 46.368V47.968L220.88 48.096C219.429 48.2667 218.299 48.5013 217.488 48.8C216.677 49.056 216.123 49.632 215.824 50.528C215.525 51.424 215.376 52.9387 215.376 55.072V83.488C215.376 85.5787 215.525 87.0933 215.824 88.032C216.123 88.9707 216.677 89.568 217.488 89.824C218.299 90.08 219.429 90.2933 220.88 90.464L222.16 90.592V92.192L212.688 92L203.152 92.192V90.592L204.432 90.464C205.925 90.2933 207.056 90.08 207.824 89.824C208.635 89.568 209.189 88.9707 209.488 88.032C209.787 87.0933 209.936 85.5787 209.936 83.488V50.592L190.992 92H189.776L173.264 51.232V85.28C173.264 86.6453 173.435 87.6693 173.776 88.352C174.117 89.0347 174.672 89.5253 175.44 89.824C176.251 90.08 177.36 90.2933 178.768 90.464L180.048 90.592V92.192L171.92 92L164.24 92.192ZM227.95 92.192V90.592L229.23 90.464C230.723 90.2933 231.854 90.08 232.622 89.824C233.433 89.5253 233.987 88.928 234.286 88.032C234.585 87.0933 234.734 85.5787 234.734 83.488V55.072C234.734 52.9387 234.585 51.424 234.286 50.528C233.987 49.632 233.433 49.056 232.622 48.8C231.854 48.5013 230.723 48.2667 229.23 48.096L227.95 47.968V46.368L237.422 46.56H237.486L246.958 46.368V47.968L245.678 48.096C244.227 48.2667 243.097 48.5013 242.286 48.8C241.475 49.056 240.921 49.632 240.622 50.528C240.323 51.424 240.174 52.9387 240.174 55.072V83.488C240.174 85.5787 240.323 87.0933 240.622 88.032C240.921 88.928 241.475 89.5253 242.286 89.824C243.097 90.08 244.227 90.2933 245.678 90.464L246.958 90.592V92.192L237.486 92H237.422L227.95 92.192ZM252.715 92.192V90.592L253.995 90.464C255.488 90.2933 256.619 90.08 257.387 89.824C258.198 89.5253 258.752 88.928 259.051 88.032C259.35 87.0933 259.499 85.5787 259.499 83.488V55.072C259.499 52.9387 259.35 51.424 259.051 50.528C258.752 49.632 258.198 49.056 257.387 48.8C256.619 48.5013 255.488 48.2667 253.995 48.096L252.715 47.968V46.368L262.315 46.56L270.571 46.368V47.84L269.547 47.968C268.31 48.096 267.35 48.288 266.667 48.544C266.027 48.8 265.579 49.3547 265.323 50.208C265.067 51.0187 264.939 52.384 264.939 54.304V80.992C264.939 83.0827 265.046 84.8107 265.259 86.176C265.515 87.5413 266.176 88.544 267.243 89.184C268.31 89.824 270.038 90.144 272.427 90.144H277.227C280.939 90.144 283.606 89.1627 285.227 87.2C286.891 85.1947 287.872 82.3147 288.171 78.56H289.579L288.939 92.192L262.187 92L252.715 92.192ZM295.042 92.192V90.592L296.322 90.464C297.816 90.2933 298.946 90.08 299.714 89.824C300.525 89.5253 301.08 88.928 301.378 88.032C301.677 87.0933 301.826 85.5787 301.826 83.488V55.072C301.826 52.9387 301.677 51.424 301.378 50.528C301.08 49.632 300.525 49.056 299.714 48.8C298.946 48.5013 297.816 48.2667 296.322 48.096L295.042 47.968V46.368L304.642 46.56L312.898 46.368V47.84L311.874 47.968C310.637 48.096 309.677 48.288 308.994 48.544C308.354 48.8 307.906 49.3547 307.65 50.208C307.394 51.0187 307.266 52.384 307.266 54.304V80.992C307.266 83.0827 307.373 84.8107 307.586 86.176C307.842 87.5413 308.504 88.544 309.57 89.184C310.637 89.824 312.365 90.144 314.754 90.144H319.554C323.267 90.144 325.933 89.1627 327.555 87.2C329.218 85.1947 330.2 82.3147 330.499 78.56H331.907L331.266 92.192L304.514 92L295.042 92.192ZM337.37 92.192V90.592L338.65 90.464C340.143 90.2933 341.274 90.08 342.042 89.824C342.853 89.5253 343.407 88.928 343.706 88.032C344.005 87.0933 344.154 85.5787 344.154 83.488V55.072C344.154 52.9387 344.005 51.424 343.706 50.528C343.407 49.632 342.853 49.056 342.042 48.8C341.274 48.5013 340.143 48.2667 338.65 48.096L337.37 47.968V46.368L346.842 46.56H346.906L356.378 46.368V47.968L355.098 48.096C353.647 48.2667 352.517 48.5013 351.706 48.8C350.895 49.056 350.341 49.632 350.042 50.528C349.743 51.424 349.594 52.9387 349.594 55.072V83.488C349.594 85.5787 349.743 87.0933 350.042 88.032C350.341 88.928 350.895 89.5253 351.706 89.824C352.517 90.08 353.647 90.2933 355.098 90.464L356.378 90.592V92.192L346.906 92H346.842L337.37 92.192ZM385.751 92.704C382.551 92.704 379.586 92.128 376.855 90.976C374.167 89.824 371.82 88.2027 369.815 86.112C367.852 84.0213 366.316 81.5467 365.207 78.688C364.098 75.7867 363.543 72.608 363.543 69.152C363.543 65.696 364.098 62.5387 365.207 59.68C366.316 56.8213 367.852 54.3467 369.815 52.256C371.82 50.1653 374.167 48.544 376.855 47.392C379.586 46.24 382.551 45.664 385.751 45.664C388.951 45.664 391.895 46.24 394.583 47.392C397.314 48.544 399.66 50.1653 401.623 52.256C403.628 54.3467 405.186 56.8213 406.295 59.68C407.404 62.5387 407.959 65.696 407.959 69.152C407.959 72.608 407.404 75.7867 406.295 78.688C405.186 81.5467 403.628 84.0213 401.623 86.112C399.66 88.2027 397.314 89.824 394.583 90.976C391.895 92.128 388.951 92.704 385.751 92.704ZM385.751 90.784C389.463 90.784 392.471 89.9093 394.775 88.16C397.079 86.4107 398.764 83.936 399.831 80.736C400.898 77.4933 401.431 73.632 401.431 69.152C401.431 64.672 400.898 60.832 399.831 57.632C398.764 54.3893 397.079 51.9147 394.775 50.208C392.471 48.4587 389.463 47.584 385.751 47.584C382.082 47.584 379.074 48.4587 376.727 50.208C374.423 51.9147 372.738 54.3893 371.671 57.632C370.604 60.832 370.071 64.672 370.071 69.152C370.071 73.632 370.604 77.4933 371.671 80.736C372.738 83.936 374.423 86.4107 376.727 88.16C379.074 89.9093 382.082 90.784 385.751 90.784ZM412.523 92.256V90.656L413.803 90.528C415.297 90.3573 416.427 90.144 417.195 89.888C418.006 89.632 418.561 89.0347 418.859 88.096C419.158 87.1573 419.307 85.6213 419.307 83.488V50.464C418.923 49.9947 418.347 49.4827 417.579 48.928C416.811 48.3307 415.681 48.032 414.187 48.032H412.267V46.368L424.683 46.56C425.451 47.6267 426.475 49.0347 427.755 50.784C429.078 52.5333 430.529 54.4747 432.107 56.608C433.729 58.7413 435.393 60.9387 437.099 63.2C438.806 65.4187 440.449 67.5733 442.027 69.664C443.649 71.7547 445.099 73.632 446.379 75.296C447.659 76.96 448.662 78.2827 449.387 79.264V55.072C449.387 52.9387 449.238 51.424 448.939 50.528C448.641 49.5893 448.086 48.992 447.275 48.736C446.507 48.4373 445.377 48.224 443.883 48.096L442.603 47.968V46.368L450.924 46.56L458.731 46.368V47.968L457.451 48.096C456.001 48.2667 454.87 48.5013 454.059 48.8C453.249 49.056 452.694 49.632 452.396 50.528C452.097 51.424 451.947 52.9387 451.947 55.072V92H450.027C449.345 90.592 448.321 88.864 446.955 86.816C445.633 84.7253 444.097 82.4427 442.347 79.968C440.598 77.4933 438.763 74.976 436.843 72.416C434.966 69.8133 433.089 67.296 431.211 64.864C429.334 62.432 427.585 60.2133 425.963 58.208C424.342 56.2027 422.977 54.5387 421.867 53.216V83.488C421.867 85.6213 422.017 87.1573 422.315 88.096C422.614 89.0347 423.169 89.632 423.979 89.888C424.79 90.144 425.921 90.3573 427.371 90.528L428.651 90.656V92.256L420.459 92L412.523 92.256Z" fill="#A58C63"/>
<path d="M499.516 92.704C497.169 92.704 495.42 91.9147 494.268 90.336C493.158 88.7147 492.433 86.7307 492.092 84.384C491.878 82.6773 491.537 80.9707 491.068 79.264C490.641 77.5573 489.937 76 488.956 74.592C488.017 73.1413 486.673 71.9893 484.924 71.136C483.217 70.2827 480.977 69.856 478.204 69.856H475.452V83.488C475.452 85.5787 475.601 87.0933 475.9 88.032C476.198 88.928 476.753 89.5253 477.564 89.824C478.374 90.08 479.505 90.2933 480.956 90.464L482.236 90.592V92.192L472.764 92H472.7L463.228 92.192V90.592L464.508 90.464C466.001 90.2933 467.132 90.08 467.9 89.824C468.71 89.5253 469.265 88.928 469.564 88.032C469.862 87.0933 470.012 85.5787 470.012 83.488V55.072C470.012 52.9387 469.862 51.424 469.564 50.528C469.265 49.632 468.71 49.056 467.9 48.8C467.132 48.5013 466.001 48.2667 464.508 48.096L463.228 47.968V46.368L472.7 46.56H481.66C484.561 46.56 487.249 46.9013 489.724 47.584C492.198 48.224 494.182 49.3547 495.676 50.976C497.212 52.5973 497.98 54.8587 497.98 57.76C497.98 60.32 497.404 62.4107 496.252 64.032C495.142 65.6107 493.649 66.8267 491.772 67.68C489.937 68.4907 487.932 69.0667 485.756 69.408C488.913 69.6213 491.473 70.7093 493.436 72.672C495.441 74.592 496.721 77.4293 497.276 81.184C497.66 83.5733 498.129 85.4507 498.684 86.816C499.281 88.1387 499.921 89.0773 500.604 89.632C501.329 90.144 502.054 90.4 502.78 90.4C503.249 90.4 503.697 90.3147 504.124 90.144C504.593 89.9733 504.998 89.8027 505.34 89.632L505.788 91.232C505.105 91.5733 504.188 91.8933 503.036 92.192C501.884 92.5333 500.71 92.704 499.516 92.704ZM481.788 48.224H475.452V68.128H480.828C484.924 68.128 487.782 67.296 489.404 65.632C491.068 63.968 491.9 61.472 491.9 58.144C491.9 54.9867 491.153 52.5547 489.66 50.848C488.166 49.0987 485.542 48.224 481.788 48.224Z" fill="#262626"/>
</svg>
